# xmcd
#
# Track frame offsets:
#	150
#	25325
#	39507
#	60997
#	86716
#	108324
#	124012
#	148337
#	184525
#	204963
#	224559
#	241883
#
# Disc length: 3510 seconds
#
# Revision: 0
# Processed by: cddbd v1.5.2PL0 Copyright (c) Steve Scherf et al.
# Submitted via: audiograbber 1.83.01
#
DISCID=a70db40c
DTITLE=David Bowie - 2003-11-26 Reality Tour London D2
DYEAR=2003
DGENRE=Rock
TTITLE0=Ashes To Ashes
TTITLE1=Be My Wife
TTITLE2=Fantastic Voyage
TTITLE3=She'll Drive The Big Car
TTITLE4=The Jean Genie
TTITLE5=Afraid
TTITLE6=Im Afraid Of Americans
TTITLE7=Heroes
TTITLE8=White Light White Heat
TTITLE9=Five Years
TTITLE10=Suffragette City
TTITLE11=Ziggy Stardust
EXTD=100 PCB Release
EXTT0=
EXTT1=
EXTT2=
EXTT3=
EXTT4=
EXTT5=
EXTT6=
EXTT7=
EXTT8=
EXTT9=
EXTT10=
EXTT11=
PLAYORDER=
